HIERARCHY
ROOT Hips
{
	OFFSET -20.575302 -32.078365 87.152718
	CHANNELS 6 Xposition Yposition Zposition Zrotation Yrotation Xrotation
	JOINT Spine
	{
		OFFSET 0.000000 2.080107 8.814247
		CHANNELS 6 Xposition Yposition Zposition Zrotation Yrotation Xrotation
		JOINT Spine1
		{
			OFFSET 0.000000 0.000000 8.844139
			CHANNELS 6 Xposition Yposition Zposition Zrotation Yrotation Xrotation
			JOINT Spine2
			{
				OFFSET 0.000000 0.000002 11.682266
				CHANNELS 6 Xposition Yposition Zposition Zrotation Yrotation Xrotation
				JOINT Spine3
				{
					OFFSET 0.000000 0.000000 11.746696
					CHANNELS 6 Xposition Yposition Zposition Zrotation Yrotation Xrotation
					JOINT Neck
					{
						OFFSET 0.000000 0.000002 17.658264
						CHANNELS 6 Xposition Yposition Zposition Zrotation Yrotation Xrotation
						JOINT Neck1
						{
							OFFSET 0.000000 0.000000 5.101517
							CHANNELS 6 Xposition Yposition Zposition Zrotation Yrotation Xrotation
							JOINT Head
							{
								OFFSET 0.000000 0.000000 5.101517
								CHANNELS 6 Xposition Yposition Zposition Zrotation Yrotation Xrotation
								JOINT HeadEnd
								{
									OFFSET 0.000000 0.000002 11.655090
									CHANNELS 6 Xposition Yposition Zposition Zrotation Yrotation Xrotation
									End Site
									{
										OFFSET 0.000000 0.000000 0.100006
									}
								}
							}
						}
					}
					JOINT RightShoulder
					{
						OFFSET -2.625389 0.000002 11.175217
						CHANNELS 6 Xposition Yposition Zposition Zrotation Yrotation Xrotation
						JOINT RightArm
						{
							OFFSET 0.000000 0.000000 10.434723
							CHANNELS 6 Xposition Yposition Zposition Zrotation Yrotation Xrotation
							JOINT RightForeArm
							{
								OFFSET 0.000000 0.000002 29.628418
								CHANNELS 6 Xposition Yposition Zposition Zrotation Yrotation Xrotation
								JOINT RightHand
								{
									OFFSET 0.000000 0.000002 22.857605
									CHANNELS 6 Xposition Yposition Zposition Zrotation Yrotation Xrotation
									JOINT RightHandThumb1
									{
										OFFSET -2.867323 -2.944292 3.959564
										CHANNELS 6 Xposition Yposition Zposition Zrotation Yrotation Xrotation
										JOINT RightHandThumb2
										{
											OFFSET 0.000000 0.000000 3.350403
											CHANNELS 6 Xposition Yposition Zposition Zrotation Yrotation Xrotation
											JOINT RightHandThumb3
											{
												OFFSET 0.000000 0.000000 3.756516
												CHANNELS 6 Xposition Yposition Zposition Zrotation Yrotation Xrotation
												JOINT RightHandThumb4
												{
													OFFSET 0.000000 0.000000 3.147339
													CHANNELS 6 Xposition Yposition Zposition Zrotation Yrotation Xrotation
													End Site
													{
														OFFSET 0.000000 0.000000 0.100006
													}
												}
											}
										}
									}
									JOINT RightHandIndex1
									{
										OFFSET -0.086752 -2.345282 10.030899
										CHANNELS 6 Xposition Yposition Zposition Zrotation Yrotation Xrotation
										JOINT RightHandIndex2
										{
											OFFSET 0.000000 0.000000 4.061096
											CHANNELS 6 Xposition Yposition Zposition Zrotation Yrotation Xrotation
											JOINT RightHandIndex3
											{
												OFFSET 0.000000 0.000000 3.248871
												CHANNELS 6 Xposition Yposition Zposition Zrotation Yrotation Xrotation
												JOINT RightHandIndex4
												{
													OFFSET 0.000000 0.000000 2.639709
													CHANNELS 6 Xposition Yposition Zposition Zrotation Yrotation Xrotation
													End Site
													{
														OFFSET 0.000000 0.000000 0.100006
													}
												}
											}
										}
									}
									JOINT RightHandMiddle1
									{
										OFFSET 0.104101 -0.006767 9.502945
										CHANNELS 6 Xposition Yposition Zposition Zrotation Yrotation Xrotation
										JOINT RightHandMiddle2
										{
											OFFSET 0.000000 0.000002 4.568726
											CHANNELS 6 Xposition Yposition Zposition Zrotation Yrotation Xrotation
											JOINT RightHandMiddle3
											{
												OFFSET 0.000000 0.000000 3.654984
												CHANNELS 6 Xposition Yposition Zposition Zrotation Yrotation Xrotation
												JOINT RightHandMiddle4
												{
													OFFSET 0.000000 0.000000 2.741241
													CHANNELS 6 Xposition Yposition Zposition Zrotation Yrotation Xrotation
													End Site
													{
														OFFSET 0.000000 0.000000 0.100006
													}
												}
											}
										}
									}
									JOINT RightHandRing1
									{
										OFFSET 0.086752 2.267443 8.921707
										CHANNELS 6 Xposition Yposition Zposition Zrotation Yrotation Xrotation
										JOINT RightHandRing2
										{
											OFFSET 0.000000 0.000002 4.061096
											CHANNELS 6 Xposition Yposition Zposition Zrotation Yrotation Xrotation
											JOINT RightHandRing3
											{
												OFFSET 0.000000 0.000000 3.654984
												CHANNELS 6 Xposition Yposition Zposition Zrotation Yrotation Xrotation
												JOINT RightHandRing4
												{
													OFFSET 0.000000 0.000000 2.741241
													CHANNELS 6 Xposition Yposition Zposition Zrotation Yrotation Xrotation
													End Site
													{
														OFFSET 0.000000 0.000000 0.100006
													}
												}
											}
										}
									}
									JOINT RightHandPinky1
									{
										OFFSET -0.173504 4.467199 7.976990
										CHANNELS 6 Xposition Yposition Zposition Zrotation Yrotation Xrotation
										JOINT RightHandPinky2
										{
											OFFSET 0.000000 0.000000 3.350403
											CHANNELS 6 Xposition Yposition Zposition Zrotation Yrotation Xrotation
											JOINT RightHandPinky3
											{
												OFFSET 0.000000 0.000002 2.842758
												CHANNELS 6 Xposition Yposition Zposition Zrotation Yrotation Xrotation
												JOINT RightHandPinky4
												{
													OFFSET 0.000000 0.000000 2.639709
													CHANNELS 6 Xposition Yposition Zposition Zrotation Yrotation Xrotation
													End Site
													{
														OFFSET 0.000000 0.000000 0.100006
													}
												}
											}
										}
									}
									JOINT RightForeArmEnd
									{
										OFFSET 0.000000 0.000000 0.000000
										CHANNELS 6 Xposition Yposition Zposition Zrotation Yrotation Xrotation
										End Site
										{
											OFFSET 0.000000 0.000000 0.100006
										}
									}
								}
								JOINT RightArmEnd
								{
									OFFSET 0.000000 0.000000 0.000000
									CHANNELS 6 Xposition Yposition Zposition Zrotation Yrotation Xrotation
									End Site
									{
										OFFSET 0.000000 0.000000 0.100006
									}
								}
							}
						}
					}
					JOINT LeftShoulder
					{
						OFFSET 2.625389 0.000002 11.175217
						CHANNELS 6 Xposition Yposition Zposition Zrotation Yrotation Xrotation
						JOINT LeftArm
						{
							OFFSET 0.000000 0.000000 10.813629
							CHANNELS 6 Xposition Yposition Zposition Zrotation Yrotation Xrotation
							JOINT LeftForeArm
							{
								OFFSET 0.000000 0.000002 28.724777
								CHANNELS 6 Xposition Yposition Zposition Zrotation Yrotation Xrotation
								JOINT LeftHand
								{
									OFFSET 0.644384 0.328873 25.716171
									CHANNELS 6 Xposition Yposition Zposition Zrotation Yrotation Xrotation
									JOINT LeftHandThumb1
									{
										OFFSET 2.867323 -2.944290 3.959564
										CHANNELS 6 Xposition Yposition Zposition Zrotation Yrotation Xrotation
										JOINT LeftHandThumb2
										{
											OFFSET 0.000000 0.000000 3.350403
											CHANNELS 6 Xposition Yposition Zposition Zrotation Yrotation Xrotation
											JOINT LeftHandThumb3
											{
												OFFSET 0.000000 0.000000 3.756516
												CHANNELS 6 Xposition Yposition Zposition Zrotation Yrotation Xrotation
												JOINT LeftHandThumb4
												{
													OFFSET 0.000000 0.000000 3.100006
													CHANNELS 6 Xposition Yposition Zposition Zrotation Yrotation Xrotation
													End Site
													{
														OFFSET 0.000000 0.000000 0.100006
													}
												}
											}
										}
									}
									JOINT LeftHandIndex1
									{
										OFFSET 0.086752 -2.345280 10.030899
										CHANNELS 6 Xposition Yposition Zposition Zrotation Yrotation Xrotation
										JOINT LeftHandIndex2
										{
											OFFSET 0.000000 0.000000 4.061096
											CHANNELS 6 Xposition Yposition Zposition Zrotation Yrotation Xrotation
											JOINT LeftHandIndex3
											{
												OFFSET 0.000000 0.000000 3.248871
												CHANNELS 6 Xposition Yposition Zposition Zrotation Yrotation Xrotation
												JOINT LeftHandIndex4
												{
													OFFSET 0.000000 0.000000 2.639709
													CHANNELS 6 Xposition Yposition Zposition Zrotation Yrotation Xrotation
													End Site
													{
														OFFSET 0.000000 0.000000 0.100006
													}
												}
											}
										}
									}
									JOINT LeftHandMiddle1
									{
										OFFSET -0.104101 -0.006767 9.502945
										CHANNELS 6 Xposition Yposition Zposition Zrotation Yrotation Xrotation
										JOINT LeftHandMiddle2
										{
											OFFSET 0.000000 0.000002 4.568726
											CHANNELS 6 Xposition Yposition Zposition Zrotation Yrotation Xrotation
											JOINT LeftHandMiddle3
											{
												OFFSET 0.000000 0.000000 3.654984
												CHANNELS 6 Xposition Yposition Zposition Zrotation Yrotation Xrotation
												JOINT LeftHandMiddle4
												{
													OFFSET 0.000000 0.000000 2.741241
													CHANNELS 6 Xposition Yposition Zposition Zrotation Yrotation Xrotation
													End Site
													{
														OFFSET 0.000000 0.000000 0.100006
													}
												}
											}
										}
									}
									JOINT LeftHandRing1
									{
										OFFSET -0.086752 2.267443 8.921707
										CHANNELS 6 Xposition Yposition Zposition Zrotation Yrotation Xrotation
										JOINT LeftHandRing2
										{
											OFFSET 0.000000 0.000002 4.061096
											CHANNELS 6 Xposition Yposition Zposition Zrotation Yrotation Xrotation
											JOINT LeftHandRing3
											{
												OFFSET 0.000000 0.000000 3.654984
												CHANNELS 6 Xposition Yposition Zposition Zrotation Yrotation Xrotation
												JOINT LeftHandRing4
												{
													OFFSET 0.000000 0.000000 2.741241
													CHANNELS 6 Xposition Yposition Zposition Zrotation Yrotation Xrotation
													End Site
													{
														OFFSET 0.000000 0.000000 0.100006
													}
												}
											}
										}
									}
									JOINT LeftHandPinky1
									{
										OFFSET 0.173504 4.467199 7.976990
										CHANNELS 6 Xposition Yposition Zposition Zrotation Yrotation Xrotation
										JOINT LeftHandPinky2
										{
											OFFSET 0.000000 0.000002 3.350403
											CHANNELS 6 Xposition Yposition Zposition Zrotation Yrotation Xrotation
											JOINT LeftHandPinky3
											{
												OFFSET 0.000000 0.000000 2.842758
												CHANNELS 6 Xposition Yposition Zposition Zrotation Yrotation Xrotation
												JOINT LeftHandPinky4
												{
													OFFSET 0.000000 0.000000 2.639709
													CHANNELS 6 Xposition Yposition Zposition Zrotation Yrotation Xrotation
													End Site
													{
														OFFSET 0.000000 0.000000 0.100006
													}
												}
											}
										}
									}
									JOINT LeftForeArmEnd
									{
										OFFSET 0.000000 0.000000 0.000000
										CHANNELS 6 Xposition Yposition Zposition Zrotation Yrotation Xrotation
										End Site
										{
											OFFSET 0.000000 0.000000 0.100006
										}
									}
								}
								JOINT LeftArmEnd
								{
									OFFSET 0.000000 0.000000 0.000000
									CHANNELS 6 Xposition Yposition Zposition Zrotation Yrotation Xrotation
									End Site
									{
										OFFSET 0.000000 0.000000 0.100006
									}
								}
							}
						}
					}
				}
			}
		}
	}
	JOINT RightUpLeg
	{
		OFFSET -11.289944 0.000000 0.000000
		CHANNELS 6 Xposition Yposition Zposition Zrotation Yrotation Xrotation
		JOINT RightLeg
		{
			OFFSET 0.000000 -0.000004 -38.200321
			CHANNELS 6 Xposition Yposition Zposition Zrotation Yrotation Xrotation
			JOINT RightFoot
			{
				OFFSET 0.000000 -0.000004 -39.900856
				CHANNELS 6 Xposition Yposition Zposition Zrotation Yrotation Xrotation
				JOINT RightToeBase
				{
					OFFSET 0.000000 -15.261639 0.000001
					CHANNELS 6 Xposition Yposition Zposition Zrotation Yrotation Xrotation
					JOINT RightToeBaseEnd
					{
						OFFSET 0.000000 -7.370708 0.000000
						CHANNELS 6 Xposition Yposition Zposition Zrotation Yrotation Xrotation
						End Site
						{
							OFFSET 0.000000 0.000000 0.100000
						}
					}
				}
				JOINT RightLegEnd
				{
					OFFSET 0.000000 0.000000 0.000000
					CHANNELS 6 Xposition Yposition Zposition Zrotation Yrotation Xrotation
					End Site
					{
						OFFSET 0.000000 0.000000 0.100000
					}
				}
			}
			JOINT RightUpLegEnd
			{
				OFFSET 0.000000 0.000000 0.000000
				CHANNELS 6 Xposition Yposition Zposition Zrotation Yrotation Xrotation
				End Site
				{
					OFFSET 0.000000 0.000000 0.099998
				}
			}
		}
	}
	JOINT LeftUpLeg
	{
		OFFSET 11.315661 0.000000 0.000000
		CHANNELS 6 Xposition Yposition Zposition Zrotation Yrotation Xrotation
		JOINT LeftLeg
		{
			OFFSET 0.000000 -0.000004 -38.200321
			CHANNELS 6 Xposition Yposition Zposition Zrotation Yrotation Xrotation
			JOINT LeftFoot
			{
				OFFSET 0.000000 -0.000004 -39.900856
				CHANNELS 6 Xposition Yposition Zposition Zrotation Yrotation Xrotation
				JOINT LeftToeBase
				{
					OFFSET 0.000000 -15.261639 0.000001
					CHANNELS 6 Xposition Yposition Zposition Zrotation Yrotation Xrotation
					JOINT LeftToeBaseEnd
					{
						OFFSET 0.000000 -7.539997 0.000000
						CHANNELS 6 Xposition Yposition Zposition Zrotation Yrotation Xrotation
						End Site
						{
							OFFSET 0.000000 0.000000 0.100000
						}
					}
				}
				JOINT LeftLegEnd
				{
					OFFSET 0.000000 0.000000 0.000000
					CHANNELS 6 Xposition Yposition Zposition Zrotation Yrotation Xrotation
					End Site
					{
						OFFSET 0.000000 0.000000 0.100000
					}
				}
			}
			JOINT LeftUpLegEnd
			{
				OFFSET 0.000000 0.000000 0.000000
				CHANNELS 6 Xposition Yposition Zposition Zrotation Yrotation Xrotation
				End Site
				{
					OFFSET 0.000000 0.000000 0.099998
				}
			}
		}
	}
}
MOTION
Frames: 2
Frame Time: 0.016667
8.207167 -44.901039 86.643181 75.681979 0.976921 -14.078897 0.000002 2.080112 8.814237 0.116402 1.226121 7.858407 0.000001 -0.000003 8.844142 0.028066 0.215322 1.195117 0.000001 -0.000004 11.682291 1.099114 1.882299 21.387238 0.000004 0.000002 11.746691 0.056059 0.688092 -1.823857 -0.000003 0.000005 17.658279 -3.728965 -11.469891 8.825537 -0.000003 -0.000008 5.101534 -3.444189 3.344213 -8.716701 0.000001 -0.000011 5.101512 3.928638 -1.946973 -22.979355 0.000006 -0.000002 11.655090 0.000003 -0.000000 -0.000001 -2.625405 0.000006 11.175215 5.638360 -97.612528 -0.611384 0.000000 -0.000005 10.434741 -46.092015 -48.653678 33.543974 0.000007 -0.000007 29.628395 33.666931 -2.648111 64.349425 -0.000010 0.000001 22.857594 -17.405574 7.508692 -5.533443 -2.867323 -2.944291 3.959572 32.750535 -12.655512 59.096832 0.000008 0.000006 3.350400 -2.747844 2.501744 -5.369979 0.000014 -0.000005 3.756526 -1.883154 1.764830 -3.715824 0.000000 -0.000004 3.147324 -0.000001 -0.000000 0.000000 -0.086762 -2.345283 10.030916 -5.019295 23.199079 10.299778 -0.000007 -0.000003 4.061138 0.578004 -0.028674 -0.426047 -0.000006 -0.000003 3.248866 0.450161 0.015931 -0.404093 0.000001 -0.000004 2.639695 -0.000001 0.000001 -0.000002 0.104088 -0.006771 9.502945 0.049191 20.855670 6.690097 0.000004 0.000004 4.568728 0.867524 -0.137173 -0.002449 -0.000002 -0.000004 3.655006 0.349688 0.076214 0.000058 0.000012 0.000012 2.741241 0.000000 0.000001 0.000000 0.086749 2.267440 8.921747 8.335343 19.374607 1.409541 -0.000005 0.000006 4.061085 -1.536247 -0.000028 0.000347 -0.000002 -0.000007 3.654951 -0.417016 -0.000001 -0.000217 -0.000005 -0.000002 2.741242 0.000001 0.000001 -0.000001 -0.173510 4.467192 7.977002 16.875266 19.402728 -4.694868 -0.000001 0.000005 3.350411 -2.164133 -0.000156 0.000455 0.000004 0.000005 2.842752 -0.137870 0.000010 0.034676 0.000005 -0.000000 2.639709 -0.000002 0.000001 0.000002 -0.000006 -0.000001 0.000001 -0.000002 0.000001 -0.000000 -0.000006 -0.000002 -0.000000 0.000000 0.000000 0.000001 2.625401 0.000000 11.175199 -2.823070 89.361141 0.740724 -0.000013 -0.000003 10.813611 51.558807 55.535606 32.423611 -0.000005 -0.000003 28.724789 -26.071191 5.281345 70.527441 0.644386 0.328876 25.716164 12.961458 -3.079746 -10.575327 2.867327 -2.944277 3.959563 -33.272836 11.458606 61.321725 -0.000003 -0.000004 3.350427 0.293512 -0.290493 -0.590541 -0.000001 0.000000 3.756521 0.203514 -0.202054 -0.409940 -0.000000 -0.000025 3.100006 0.000000 -0.000001 0.000000 0.086754 -2.345272 10.030894 -14.153865 -24.405152 18.561504 -0.000003 0.000004 4.061086 1.370301 -0.000012 0.000804 -0.000005 0.000003 3.248868 0.815245 -0.000005 -0.035936 0.000003 0.000004 2.639708 0.000000 -0.000001 0.000002 -0.104109 -0.006764 9.502947 -7.857430 -21.684606 8.814404 -0.000002 0.000010 4.568747 0.589221 0.000000 0.248014 -0.000003 -0.000002 3.654988 0.817796 -0.000014 0.207884 0.000001 -0.000002 2.741259 0.000001 0.000001 -0.000003 -0.086763 2.267448 8.921719 2.099987 -13.801346 -3.733645 0.000004 0.000003 4.061125 -1.379426 0.000112 0.000362 -0.000004 -0.000004 3.654994 -0.297172 0.000009 -0.270510 0.000003 -0.000001 2.741242 -0.000000 0.000001 0.000000 0.173500 4.467201 7.977003 11.719296 -2.433655 -13.726426 0.000007 0.000001 3.350399 -2.079326 0.000007 0.000255 -0.000001 -0.000001 2.842745 -0.092381 -0.000002 -0.008331 0.000003 0.000003 2.639707 -0.000000 -0.000005 0.000003 -0.000002 0.000001 0.000029 0.000001 -0.000002 0.000001 0.000000 0.000003 0.000013 -0.000002 -0.000002 0.000003 -11.289945 -0.000003 0.000014 -7.615250 15.832916 3.228408 -0.000003 -0.000005 -38.200310 -1.290923 0.580350 24.203919 -0.000001 -0.000000 -39.900856 -16.843509 -7.401371 29.645173 -0.000000 -15.261644 0.000001 -1.731531 0.741803 -30.563529 -0.000001 -7.370704 0.000000 -0.000001 -0.000001 0.000000 -0.000005 -0.000007 0.000001 -0.000002 -0.000001 -0.000000 -0.000007 -0.000005 -0.000000 -0.000001 0.000000 0.000001 11.315660 -0.000004 0.000008 9.566034 3.574557 14.328181 0.000000 -0.000009 -38.200310 0.110537 -0.026401 13.394315 0.000001 -0.000003 -39.900852 13.352469 -9.862156 10.971504 0.000000 -15.261644 0.000003 0.798018 0.097280 -27.049904 -0.000006 -7.539997 0.000001 0.000000 -0.000000 0.000000 -0.000002 -0.000004 0.000001 0.000000 0.000000 0.000001 0.000000 -0.000004 0.000015 0.000001 0.000001 0.000000 
8.160511 -44.963348 86.640846 75.466480 0.959330 -14.021021 0.000001 2.080110 8.814237 0.093518 1.164082 7.770231 0.000003 0.000001 8.844151 0.050555 0.347809 1.437630 0.000005 0.000004 11.682263 1.000564 1.846991 21.098226 -0.000003 -0.000001 11.746675 0.014351 0.707151 -1.826240 0.000002 0.000003 17.658281 -3.647249 -11.346343 8.907262 -0.000003 -0.000003 5.101527 -3.403673 3.347064 -8.621154 0.000005 -0.000004 5.101544 3.919244 -1.949322 -22.915879 -0.000003 0.000005 11.655106 0.000001 -0.000000 -0.000001 -2.625384 -0.000002 11.175215 5.704860 -97.614919 -0.613308 -0.000011 0.000005 10.434730 -46.457485 -48.740346 33.986024 -0.000010 -0.000001 29.628407 33.474883 -2.615963 64.410658 0.000008 0.000007 22.857595 -17.287987 8.188736 -5.392678 -2.867328 -2.944289 3.959572 32.691331 -12.809321 58.820578 0.000011 -0.000008 3.350412 -3.067653 2.763467 -5.974289 0.000008 -0.000008 3.756501 -2.099444 1.953266 -4.132530 -0.000001 -0.000016 3.147324 -0.000001 -0.000001 -0.000000 -0.086767 -2.345285 10.030907 -5.110955 22.562019 10.111228 -0.000008 -0.000004 4.061101 0.579687 -0.000045 -0.428345 -0.000010 -0.000004 3.248871 0.452158 0.000050 -0.406724 -0.000003 -0.000006 2.639694 0.000000 -0.000000 -0.000000 0.104085 -0.006764 9.502941 -0.049543 20.277071 6.620332 -0.000001 -0.000007 4.568741 0.868851 0.000007 -0.000374 0.000005 -0.000002 3.654983 0.350859 -0.000006 -0.000411 -0.000006 0.000001 2.741241 -0.000001 -0.000000 0.000000 0.086753 2.267447 8.921724 8.254510 19.005920 1.581632 -0.000006 -0.000003 4.061090 -1.537399 -0.000013 0.000349 0.000002 -0.000009 3.654993 -0.417923 -0.000010 -0.000216 -0.000009 0.000001 2.741255 0.000001 -0.000003 0.000001 -0.173521 4.467199 7.976985 16.845185 19.133093 -4.170400 0.000011 -0.000003 3.350398 -2.164686 -0.000152 0.000454 0.000001 0.000008 2.842758 -0.138350 0.000015 0.035010 0.000000 -0.000002 2.639710 -0.000004 0.000001 0.000000 -0.000007 0.000001 0.000000 -0.000001 -0.000001 -0.000001 0.000009 0.000005 -0.000002 0.000000 -0.000001 0.000003 2.625383 0.000001 11.175218 -2.830799 89.390449 0.750354 -0.000000 -0.000003 10.813623 52.204557 55.301337 33.074108 -0.000000 -0.000009 28.724754 -25.879245 5.223348 70.463688 0.644380 0.328877 25.716196 12.655619 -3.636790 -10.269877 2.867327 -2.944265 3.959554 -33.272826 11.458640 61.321712 -0.000001 0.000001 3.350418 0.293535 -0.290528 -0.590541 -0.000001 -0.000005 3.756508 0.203505 -0.202058 -0.409944 -0.000001 -0.000012 3.100006 -0.000000 0.000000 0.000000 0.086754 -2.345274 10.030882 -13.951020 -23.709735 18.243304 -0.000002 -0.000004 4.061121 1.370649 0.000010 0.000809 -0.000002 0.000007 3.248872 0.815540 -0.000004 -0.035996 0.000001 -0.000000 2.639709 0.000002 -0.000001 0.000001 -0.104105 -0.006760 9.502934 -7.683348 -20.924580 8.766244 0.000000 -0.000005 4.568727 0.590120 -0.048444 0.249948 0.000005 0.000004 3.654986 0.818377 0.026935 0.210352 0.000005 0.000008 2.741241 0.000000 0.000001 0.000001 -0.086756 2.267451 8.921706 2.230663 -13.065542 -3.290451 0.000003 0.000009 4.061099 -1.380456 0.000138 0.000369 0.000002 -0.000003 3.655007 -0.297950 0.000016 -0.275062 -0.000003 -0.000002 2.741241 0.000001 -0.000000 0.000002 0.173505 4.467209 7.976998 11.874536 -1.932703 -12.836207 0.000006 0.000004 3.350412 -2.081378 0.000003 0.000260 0.000002 -0.000002 2.842766 -0.094611 -0.000005 -0.008415 0.000002 -0.000002 2.639692 0.000001 -0.000002 0.000003 0.000001 0.000007 -0.000000 0.000001 0.000001 0.000001 -0.000003 -0.000003 0.000016 0.000001 0.000002 -0.000001 -11.289940 -0.000005 0.000001 -7.587089 15.752657 3.102170 0.000002 -0.000002 -38.200306 -1.285639 0.576955 24.174580 0.000003 0.000004 -39.900856 -16.807909 -7.397109 29.560594 0.000008 -15.261646 0.000009 -1.715359 0.744914 -30.524706 -0.000004 -7.370712 0.000001 -0.000001 0.000000 0.000000 -0.000000 -0.000012 0.000006 0.000001 0.000002 0.000002 0.000002 -0.000002 0.000003 0.000000 0.000001 0.000002 11.315662 -0.000008 -0.000005 9.545053 3.580205 14.198112 -0.000008 -0.000009 -38.200317 0.117558 -0.028220 13.487316 -0.000001 -0.000004 -39.900856 13.574879 -9.773699 10.942597 0.000002 -15.261641 0.000003 0.798492 0.092465 -27.062256 -0.000005 -7.540009 0.000001 0.000000 -0.000000 0.000000 0.000004 -0.000007 -0.000001 -0.000001 -0.000000 0.000001 0.000001 -0.000003 0.000003 -0.000001 -0.000000 0.000001 
